#N canvas -215 165 1022 813 12;
#X obj 528 317 random 80;
#X floatatom 528 355 5 0 0 0 - - -;
#X obj 591 502 makenote;
#X msg 704 394 127;
#X floatatom 570 541 5 0 0 0 - - -;
#X floatatom 668 540 5 0 0 0 - - -;
#X obj 591 638 noteout;
#X text 470 260 NOTE;
#X text 659 370 Velocity;
#X text 768 442 Duration;
#X text 913 557 Channel;
#X obj 787 237 bng 15 250 50 0 empty empty empty 17 7 0 10 -262144
-1 -1;
#X msg 914 590 1;
#X floatatom 591 214 5 0 0 0 - - -;
#X obj 522 271 metro;
#X msg 774 484 500;
#X connect 0 0 1 0;
#X connect 1 0 2 0;
#X connect 2 0 4 0;
#X connect 2 1 5 0;
#X connect 3 0 2 1;
#X connect 4 0 6 0;
#X connect 5 0 6 1;
#X connect 11 0 3 0;
#X connect 11 0 15 0;
#X connect 11 0 12 0;
#X connect 11 0 14 0;
#X connect 12 0 6 2;
#X connect 13 0 14 1;
#X connect 14 0 0 0;
#X connect 15 0 2 2;
